HIERARCHY
ROOT Hips
{
	OFFSET 0.00000 0.00000 0.00000
	CHANNELS 6 Xposition Yposition Zposition Zrotation Yrotation Xrotation 
	JOINT LHipJoint
	{
		OFFSET 0 0 0
		CHANNELS 3 Zrotation Yrotation Xrotation
		JOINT LeftUpLeg
		{
			OFFSET 2.36090 -1.39315 1.24752
			CHANNELS 3 Zrotation Yrotation Xrotation
			JOINT LeftLeg
			{
				OFFSET 2.06810 -5.68207 0.00000
				CHANNELS 3 Zrotation Yrotation Xrotation
				JOINT LeftFoot
				{
					OFFSET 2.46631 -6.77613 0.00000
					CHANNELS 3 Zrotation Yrotation Xrotation
					JOINT LeftToeBase
					{
						OFFSET 0.26031 -0.71520 1.99545
						CHANNELS 3 Zrotation Yrotation Xrotation
						End Site
						{
							OFFSET 0.00000 -0.00000 1.05957
						}
					}
				}
			}
		}
	}
	JOINT RHipJoint
	{
		OFFSET 0 0 0
		CHANNELS 3 Zrotation Yrotation Xrotation
		JOINT RightUpLeg
		{
			OFFSET -2.25243 -1.39315 1.24752
			CHANNELS 3 Zrotation Yrotation Xrotation
			JOINT RightLeg
			{
				OFFSET -2.17343 -5.97145 0.00000
				CHANNELS 3 Zrotation Yrotation Xrotation
				JOINT RightFoot
				{
					OFFSET -2.52372 -6.93386 0.00000
					CHANNELS 3 Zrotation Yrotation Xrotation
					JOINT RightToeBase
					{
						OFFSET -0.22538 -0.61923 2.11447
						CHANNELS 3 Zrotation Yrotation Xrotation
						End Site
						{
							OFFSET -0.00000 -0.00000 1.10506
						}
					}
				}
			}
		}
	}
	JOINT LowerBack
	{
		OFFSET 0 0 0
		CHANNELS 3 Zrotation Yrotation Xrotation
		JOINT Spine
		{
			OFFSET 0.01594 2.13103 0.08007
			CHANNELS 3 Zrotation Yrotation Xrotation
			JOINT Spine1
			{
				OFFSET 0.01393 2.09723 0.18338
				CHANNELS 3 Zrotation Yrotation Xrotation
				JOINT Neck
				{
					OFFSET 0 0 0
					CHANNELS 3 Zrotation Yrotation Xrotation
					JOINT Neck1
					{
						OFFSET 0.05351 1.38915 0.32494
						CHANNELS 3 Zrotation Yrotation Xrotation
						JOINT Head
						{
							OFFSET 0.00711 1.45992 -0.21666
							CHANNELS 3 Zrotation Yrotation Xrotation
							End Site
							{
								OFFSET -0.00433 1.47702 -0.11056
							}
						}
					}
				}
				JOINT LeftShoulder
				{
					OFFSET 0 0 0
					CHANNELS 3 Zrotation Yrotation Xrotation
					JOINT LeftArm
					{
						OFFSET 2.87198 0.92249 0.11132
						CHANNELS 3 Zrotation Yrotation Xrotation
						JOINT LeftForeArm
						{
							OFFSET 5.52731 -0.00000 0.00000
							CHANNELS 3 Zrotation Yrotation Xrotation
							JOINT LeftHand
							{
								OFFSET 3.11059 -0.00000 0.00000
								CHANNELS 3 Zrotation Yrotation Xrotation
								JOINT LeftFingerBase
								{
									OFFSET 0 0 0
									CHANNELS 3 Zrotation Yrotation Xrotation
									JOINT LeftHandIndex1
									{
										OFFSET 0.41963 -0.00000 0.00000
										CHANNELS 3 Zrotation Yrotation Xrotation
										End Site
										{
											OFFSET 0.33831 -0.00000 0.00000
										}
									}
								}
								JOINT LThumb
								{
									OFFSET 0 0 0
									CHANNELS 3 Zrotation Yrotation Xrotation
									End Site
									{
										OFFSET 0.34348 -0.00000 0.34348
									}
								}
							}
						}
					}
				}
				JOINT RightShoulder
				{
					OFFSET 0 0 0
					CHANNELS 3 Zrotation Yrotation Xrotation
					JOINT RightArm
					{
						OFFSET -2.94710 0.68072 0.32187
						CHANNELS 3 Zrotation Yrotation Xrotation
						JOINT RightForeArm
						{
							OFFSET -5.25396 -0.00000 -0.00000
							CHANNELS 3 Zrotation Yrotation Xrotation
							JOINT RightHand
							{
								OFFSET -3.10567 -0.00000 0.00000
								CHANNELS 3 Zrotation Yrotation Xrotation
								JOINT RightFingerBase
								{
									OFFSET 0 0 0
									CHANNELS 3 Zrotation Yrotation Xrotation
									JOINT RightHandIndex1
									{
										OFFSET -0.49868 -0.00000 0.00000
										CHANNELS 3 Zrotation Yrotation Xrotation
										End Site
										{
											OFFSET -0.40204 -0.00000 0.00000
										}
									}
								}
								JOINT RThumb
								{
									OFFSET 0 0 0
									CHANNELS 3 Zrotation Yrotation Xrotation
									End Site
									{
										OFFSET -0.40818 -0.00000 0.40818
									}
								}
							}
						}
					}
				}
			}
		}
	}
}
MOTION
Frames: 7
Frame Time: .0083333
5.3552 15.818 21.9333 0 0 0 0 0 0 -21 0 0 0 0 0 0 0 0 0 0 0 0 0 0 21 0 0 0 0 0 0 0 0 0 0 0 0 0 0 0 0 0 0 0 0 0 0 -16 0 0 21 0 0 11 0 0 0 -8 0 0 0 0 0 0 0 0 0 0 0 0 0 0 0 0 0 0 0 0 8 0 0 0 0 0 0 0 0 0 0 0 0 0 0 0 0 0
5.3552 15.8180 21.9333 -28.6103 -77.3393 47.0787 0.0000 0.0000 0.0000 -10.4464 -19.4476 -25.2035 1.8483 8.5427 24.3750 -0.1451 13.2190 -16.9044 0.4901 -4.4887 -12.4559 0.0000 0.0000 0.0000 19.0046 29.2819 -20.9789 -1.4978 -7.7305 21.8986 0.3900 -13.6698 -13.7183 -0.2508 3.2226 -8.8991 4.1819 1.0427 -18.5298 0.6158 0.3019 -4.6606 -1.6601 0.0800 5.3743 5.2701 2.2056 -19.1783 0.5685 0.8974 27.0246 -0.5615 0.9016 12.1400 0.0000 0.0000 0.0000 -84.1170 5.9045 27.1750 16.6660 -26.4153 -3.9376 -0.0000 0.0000 -40.5449 20.8811 -0.3134 -0.1196 -7.1250 0.0000 -0.0000 -4.4632 29.6303 1.6775 0.0000 0.0000 0.0000 84.3740 -8.3149 10.2526 -12.4414 20.4632 -2.2542 0.0000 -0.0000 -2.4771 -28.4499 -17.8483 9.4290 7.1250 -0.0000 -0.0000 -0.4269 -50.0932 0.0536
5.3618 15.8166 21.9315 -28.4580 -77.2953 46.9232 0.0000 0.0000 0.0000 -10.4157 -19.5559 -25.2014 1.8461 8.5379 24.3601 -0.1474 13.2498 -16.9223 0.4781 -4.4343 -12.3017 0.0000 0.0000 0.0000 19.0406 29.1028 -21.0690 -1.5001 -7.7363 21.9160 0.3943 -13.6456 -13.5810 -0.2942 3.4877 -9.6397 4.1984 1.0217 -18.5405 0.6078 0.2710 -4.6661 -1.6851 0.0648 5.3722 5.0269 2.1949 -19.3123 0.8755 0.8526 27.1707 -0.4110 0.8987 12.2209 0.0000 0.0000 0.0000 -84.0655 5.8216 28.2246 16.7909 -26.5813 -3.9933 -0.0000 0.0000 -40.0838 20.8171 -0.5933 -0.2256 -7.1250 0.0000 -0.0000 -4.5008 29.3316 1.7238 0.0000 0.0000 0.0000 84.6503 -8.2487 8.2679 -12.1986 20.1019 -2.1701 0.0000 -0.0000 -2.2087 -28.7818 -18.3614 9.8177 7.1250 -0.0000 -0.0000 -0.6756 -50.7196 0.0952
5.3726 15.8172 21.9390 -27.8590 -77.1540 46.3752 0.0000 0.0000 0.0000 -10.4154 -19.8024 -25.2895 1.8460 8.5376 24.3592 -0.1579 13.2856 -16.8308 0.4776 -4.4318 -12.2948 0.0000 0.0000 0.0000 18.9186 28.8688 -21.2243 -1.5004 -7.7371 21.9184 0.3591 -13.4154 -13.7791 -0.2320 3.1003 -8.5581 4.2704 0.9409 -18.5097 0.6117 0.1517 -4.7241 -1.7492 0.0034 5.2867 5.3436 2.2293 -19.2086 0.5251 0.9124 27.1219 -0.5878 0.9106 12.1861 0.0000 -0.0000 0.0000 -84.0609 5.8030 29.1574 16.9193 -26.7513 -4.0509 -0.0000 0.0000 -39.7566 20.8431 -0.9235 -0.3516 -7.1250 0.0000 -0.0000 -4.4663 28.9795 1.7480 0.0000 -0.0000 0.0000 84.6368 -8.3883 7.3628 -12.0825 19.9283 -2.1303 0.0000 -0.0000 -2.7802 -29.9266 -19.1187 10.6771 7.1250 -0.0000 -0.0000 -1.7200 -51.7720 0.2869
5.3791 15.8159 21.9366 -27.8025 -77.1224 46.2913 0.0000 0.0000 0.0000 -10.3779 -19.8842 -25.2761 1.8477 8.5414 24.3711 -0.1493 13.2368 -16.8740 0.4523 -4.3144 -11.9629 0.0000 0.0000 0.0000 18.9722 28.6843 -21.2823 -1.5001 -7.7363 21.9160 0.3592 -13.3543 -13.6488 -0.2662 3.3189 -9.1679 4.2077 0.8485 -18.4674 0.7093 0.0375 -4.7324 -1.6353 -0.0544 5.2486 5.1428 2.2912 -19.2225 0.6452 1.0287 27.1638 -0.4899 0.9578 12.2056 -0.0000 0.0000 0.0000 -84.1376 5.7458 30.0075 17.0219 -26.8867 -4.0973 -0.0000 0.0000 -39.7529 21.0317 -0.9871 -0.3795 -7.1250 0.0000 -0.0000 -4.3170 28.9110 1.6963 -0.0000 0.0000 0.0000 84.5912 -8.4597 6.6864 -11.9823 19.7781 -2.0963 0.0000 -0.0000 -2.8078 -30.0562 -19.5002 10.9327 7.1250 -0.0000 -0.0000 -1.7915 -52.2223 0.3186
5.3867 15.8149 21.9362 -27.6149 -77.0713 46.1036 0.0000 0.0000 0.0000 -10.3495 -20.0004 -25.2977 1.8493 8.5449 24.3818 -0.1450 13.2115 -16.8946 0.4312 -4.2139 -11.6792 0.0000 0.0000 0.0000 18.9837 28.4824 -21.3790 -1.5001 -7.7363 21.9158 0.3539 -13.2621 -13.5599 -0.2890 3.4574 -9.5548 4.1968 0.7867 -18.4341 0.7438 -0.0425 -4.7529 -1.6104 -0.0953 5.2044 5.0841 2.3232 -19.2320 0.6746 1.0832 27.1898 -0.4600 0.9801 12.2183 -0.0000 0.0000 0.0000 -84.1174 5.6787 30.9366 17.1309 -27.0301 -4.1467 -0.0000 0.0000 -39.6772 21.1836 -1.1227 -0.4351 -7.1250 0.0000 -0.0000 -4.1935 28.7655 1.6621 -0.0000 0.0000 0.0000 84.6152 -8.5516 5.8432 -11.8877 19.6360 -2.0644 0.0000 -0.0000 -2.9387 -29.9798 -19.8872 11.1025 7.1250 -0.0000 -0.0000 -1.6459 -52.6388 0.3095
5.3942 15.8139 21.9348 -27.4698 -77.0326 45.9583 0.0000 0.0000 0.0000 -10.3189 -20.0947 -25.3371 1.8549 8.5572 24.4196 -0.1377 13.1701 -16.9317 0.4098 -4.1092 -11.3841 0.0000 0.0000 0.0000 19.0006 28.2974 -21.4642 -1.4980 -7.7310 21.9001 0.3511 -13.1826 -13.4475 -0.3169 3.6188 -10.0066 4.1838 0.7353 -18.3959 0.7675 -0.1071 -4.7715 -1.5922 -0.1285 5.1606 5.0353 2.3488 -19.2426 0.7062 1.1255 27.2025 -0.4329 0.9981 12.2258 0.0000 0.0000 0.0000 -84.0598 5.5972 31.8751 17.2318 -27.1623 -4.1926 -0.0000 0.0000 -39.7053 21.3699 -1.2078 -0.4726 -7.1250 0.0000 -0.0000 -4.0457 28.6735 1.6120 0.0000 0.0000 0.0000 84.6370 -8.6664 5.1712 -11.8230 19.5387 -2.0427 0.0000 -0.0000 -3.0710 -29.5214 -20.1918 11.0593 7.1250 -0.0000 -0.0000 -1.1106 -52.8870 0.2156
